@startuml
'https://plantuml.com/class-diagram

abstract class SoyMikle {
   + make():void
   + select():void
   + add():void
   + soak():void
   + beat():void
}
note top of SoyMikle :add() 添加配料,不同配料做成不同的豆浆\n 抽象方法
class BlackBeanSoyaMikle extends SoyMikle {
}
class PennutSoyaMilk extends SoyMikle {
}
class Client
Client ..> SoyMikle
Client ..> BlackBeanSoyaMikle


@enduml